<?xml version="1.0" encoding="UTF-8" standalone="no"?>
<!DOCTYPE svg PUBLIC "-//W3C//DTD SVG 1.1//EN" "http://www.w3.org/Graphics/SVG/1.1/DTD/svg11.dtd">
<svg width="100%" height="100%" viewBox="0 0 233 244" version="1.1" xmlns="http://www.w3.org/2000/svg" xmlns:xlink="http://www.w3.org/1999/xlink" xml:space="preserve" xmlns:serif="http://www.serif.com/" style="fill-rule:evenodd;clip-rule:evenodd;stroke-linejoin:round;stroke-miterlimit:2;">
    <g transform="matrix(1,0,0,1,-24.828,-3160.83)">
        <g id="アートボード1" transform="matrix(0.58098,0,0,0.607863,24.828,3160.83)">
            <rect x="0" y="0" width="400" height="400" style="fill:none;"/>
            <g transform="matrix(1.62534,0,0,1.55346,-133.969,-106.844)">
                <path d="M200,295.202C200,295.202 155.907,296.055 162.596,295.202C177.321,293.324 194.938,272.006 194.938,243.484C165.856,299.737 80.915,262.938 102.059,200C116.048,158.361 192.027,123.957 200,86.7C200.024,86.586 199.976,86.586 200,86.7C207.973,123.957 283.952,158.361 297.941,200C319.085,262.938 234.144,299.737 205.062,243.484C205.062,272.006 222.679,293.324 237.404,295.202C244.093,296.055 200,295.202 200,295.202Z"/>
            </g>
        </g>
        <g id="楕円形_3">
        </g>
        <g id="楕円形_1">
        </g>
        <g id="楕円形_2">
        </g>
        <g id="楕円形_4">
        </g>
        <g id="楕円形_5">
        </g>
    </g>
</svg>
